<svg xmlns="http://www.w3.org/2000/svg" xmlns:xlink="http://www.w3.org/1999/xlink" width="16" height="13" version="1.1" style=""><rect id="backgroundrect" width="100%" height="100%" x="0" y="0" fill="none" stroke="none" class="" style=""/>
    <!-- Generator: Sketch 3.8.1 (29687) - http://www.bohemiancoding.com/sketch -->
    <title>code [#1115]</title>
    <desc>Created with Sketch.</desc>
    <defs/>
    
<g class="currentLayer" style=""><title>Layer 1</title><g id="Page-1" stroke="none" stroke-width="1" fill="none" fill-rule="evenodd" class="">
        <g id="Dribbble-Light-Preview" fill="#ededeb">
            <g id="icons">
                <path d="M4.313546750373336,4.373367019787203 C4.631319969071974,4.090863093374644 4.631319969071974,3.633162933527639 4.313546750373336,3.350659007114749 L4.302872471957774,3.3411692111371183 C3.9850992532591594,3.0586652847242277 3.470257204741226,3.0586652847242277 3.152483986042599,3.3411692111371183 L0.23833055078462131,5.931153528740294 C-0.07944349679102407,6.213657455153184 -0.07944349679102407,6.672087599306313 0.23833055078462131,6.954591525718871 L3.152483986042599,9.544575843322377 C3.470257204741226,9.827079769734935 3.9850992532591594,9.827079769734935 4.302872471957774,9.544575843322377 L4.313546750373336,9.535086047344414 C4.631319969071974,9.252582120931859 4.631319969071974,8.794881961084851 4.313546750373336,8.512378034671961 L2.5612774965846343,6.954591525718871 C2.2435042778860073,6.672087599306313 2.2435042778860073,6.213657455153184 2.5612774965846343,5.931153528740294 L4.313546750373336,4.373367019787203 zM15.51033349811916,5.931153528740294 L12.596180062861194,3.3411692111371183 C12.279228261301071,3.0586652847242277 11.763564795644621,3.0586652847242277 11.445791576946005,3.3411692111371183 L11.435117298530445,3.350659007114749 C11.117344079831806,3.633162933527639 11.117344079831806,4.090863093374644 11.435117298530445,4.373367019787203 L13.188207969457663,5.931153528740294 C13.505981188156278,6.213657455153184 13.505981188156278,6.672087599306313 13.188207969457663,6.954591525718871 L11.435117298530445,8.512378034671961 C11.117344079831806,8.794881961084851 11.117344079831806,9.252582120931859 11.435117298530445,9.535086047344414 L11.445791576946005,9.544575843322377 C11.763564795644621,9.827079769734935 12.279228261301071,9.827079769734935 12.596180062861194,9.544575843322377 L15.51033349811916,6.954591525718871 C15.828107545694804,6.672087599306313 15.828107545694804,6.213657455153184 15.51033349811916,5.931153528740294 L15.51033349811916,5.931153528740294 zM10.61738368954287,2.905492677801412 L6.421294010160372,10.811580403832796 C6.285359005821675,11.060132760174643 6.046861244198773,11.367346655344681 5.739175458977199,11.367346655344681 L5.722895485195549,11.367346655344681 C5.124617016902249,11.367346655344681 4.734719063281277,10.651743040196148 4.9992634567515735,10.169296412376623 L9.170933589900121,2.3380028783356037 C9.306869423115824,2.090180506299548 9.810725535454248,1.8958805835779708 9.810725535454248,1.8958805835779708 L9.810725535454248,1.87755067765488 C10.624710133626973,1.87755067765488 10.881114954644946,2.423053349824763 10.61738368954287,2.905492677801412 L10.61738368954287,2.905492677801412 z" id="code-[#1115]"/>
            </g>
        </g>
    </g></g></svg>